<svg xmlns="http://www.w3.org/2000/svg" width="21.339" height="17.331" viewBox="0 0 21.339 17.331">
  <path id="Icon_awesome-twitter" data-name="Icon awesome-twitter" d="M19.146,7.7c.014.19.014.379.014.569A12.358,12.358,0,0,1,6.716,20.712,12.359,12.359,0,0,1,0,18.749a9.047,9.047,0,0,0,1.056.054,8.759,8.759,0,0,0,5.43-1.869A4.381,4.381,0,0,1,2.4,13.9a5.515,5.515,0,0,0,.826.068,4.626,4.626,0,0,0,1.151-.149A4.374,4.374,0,0,1,.867,9.528V9.474a4.4,4.4,0,0,0,1.977.555A4.38,4.38,0,0,1,1.489,4.18a12.431,12.431,0,0,0,9.018,4.577,4.937,4.937,0,0,1-.108-1,4.378,4.378,0,0,1,7.569-2.992,8.611,8.611,0,0,0,2.776-1.056,4.362,4.362,0,0,1-1.923,2.41,8.767,8.767,0,0,0,2.518-.677A9.4,9.4,0,0,1,19.146,7.7Z" transform="translate(0 -3.381)" fill="#465d71"/>
</svg>
