<svg xmlns="http://www.w3.org/2000/svg" width="16.599" height="16.599" viewBox="0 0 16.599 16.599">
  <path id="Icon_awesome-linkedin-in" data-name="Icon awesome-linkedin-in" d="M3.716,16.6H.274V5.517H3.716ZM1.993,4.006A2,2,0,1,1,3.986,1.994,2.01,2.01,0,0,1,1.993,4.006ZM16.6,16.6H13.162V11.2c0-1.286-.026-2.935-1.789-2.935-1.789,0-2.063,1.4-2.063,2.842V16.6H5.871V5.517h3.3V7.029H9.22a3.616,3.616,0,0,1,3.256-1.79c3.483,0,4.123,2.294,4.123,5.273V16.6Z" transform="translate(0 -0.001)" fill="#465d71"/>
</svg>
