<svg xmlns="http://www.w3.org/2000/svg" width="24.552" height="19.941" viewBox="0 0 24.552 19.941">
  <path id="Icon_awesome-twitter" data-name="Icon awesome-twitter" d="M22.029,8.35c.016.218.016.436.016.654A14.219,14.219,0,0,1,7.727,23.322,14.22,14.22,0,0,1,0,21.063a10.41,10.41,0,0,0,1.215.062,10.078,10.078,0,0,0,6.247-2.15,5.041,5.041,0,0,1-4.7-3.49,6.346,6.346,0,0,0,.95.078,5.322,5.322,0,0,0,1.324-.171A5.033,5.033,0,0,1,1,10.454v-.062a5.068,5.068,0,0,0,2.275.639A5.04,5.04,0,0,1,1.714,4.3,14.3,14.3,0,0,0,12.089,9.566a5.681,5.681,0,0,1-.125-1.153A5.037,5.037,0,0,1,20.673,4.97a9.907,9.907,0,0,0,3.194-1.215,5.018,5.018,0,0,1-2.212,2.773,10.088,10.088,0,0,0,2.9-.779,10.817,10.817,0,0,1-2.524,2.6Z" transform="translate(0 -3.381)"/>
</svg>
