<svg xmlns="http://www.w3.org/2000/svg" width="19.099" height="19.098" viewBox="0 0 19.099 19.098">
  <path id="Icon_awesome-linkedin-in" data-name="Icon awesome-linkedin-in" d="M4.275,19.1H.315V6.348h3.96ZM2.293,4.609A2.3,2.3,0,1,1,4.586,2.294,2.312,2.312,0,0,1,2.293,4.609Zm16.8,14.49H15.144V12.892c0-1.479-.03-3.376-2.059-3.376-2.059,0-2.374,1.607-2.374,3.27V19.1H6.755V6.348h3.8V8.087h.055a4.161,4.161,0,0,1,3.746-2.059c4.007,0,4.744,2.639,4.744,6.066v7Z" transform="translate(0 -0.001)"/>
</svg>
