<svg xmlns="http://www.w3.org/2000/svg" width="85.122" height="235.387" viewBox="0 0 85.122 235.387">
  <g id="bader" transform="translate(-71.757 -218.323)">
    <g id="Group_36" data-name="Group 36" transform="translate(71.757 218.323)">
      <path id="Path_148" data-name="Path 148" d="M107.275,218.791c6.578-1.351,18.24.645,18.672.713a27.536,27.536,0,0,1,7.147,1.965c1.335.6,2.754,1.024,4.014,1.745,2.2,1.259,4.363,2.595,6.434,4.052a32.629,32.629,0,0,1,7.648,8.035,30.637,30.637,0,0,1,2.564,4.605,44.8,44.8,0,0,1,2.162,5.523,15.921,15.921,0,0,1,.7,3.369c.19,2.011.22,4.052.22,6.077q.011,97.7.008,195.4a9.2,9.2,0,0,1-.038,2,1.528,1.528,0,0,1-.857,1.032c-.615.137-1.449.288-1.7-.675a4.525,4.525,0,0,1-.152-1.146q-.011-79.085-.008-158.162c0-13.93.03-27.86-.038-41.79a23.512,23.512,0,0,0-1.563-7.891,29.95,29.95,0,0,0-4.507-8.3,35.182,35.182,0,0,0-8.763-7.951,40.99,40.99,0,0,0-8.649-4.044,25.574,25.574,0,0,0-4.712-1.085,39.047,39.047,0,0,0-6.237-.66c-3.1-.106-6.191-.144-9.279-.023a45.067,45.067,0,0,0-7.64.8,55.238,55.238,0,0,0-7.951,2.435,36.369,36.369,0,0,0-4.643,2.534A31.267,31.267,0,0,0,78.74,239.026a43.841,43.841,0,0,0-2.534,5.865,24.4,24.4,0,0,0-1.085,5.9c-.212,3.778-.22,7.564-.22,11.35q-.011,94.608-.008,189.209c0,1.54-.926,2.231-2.307,1.555a2.121,2.121,0,0,1-.766-1.548c-.114-1.267-.038-2.549-.038-3.824q0-96.11.023-192.213a25.912,25.912,0,0,1,.971-7.648c.448-1.449.577-3,1.039-4.438a25.31,25.31,0,0,1,1.631-3.756,29.138,29.138,0,0,1,4.757-7.033,52.171,52.171,0,0,1,4.825-4.7,49,49,0,0,1,6.024-4.067,29.113,29.113,0,0,1,4.674-2.033c1.866-.683,3.778-1.259,5.69-1.828.622-.19,1.313-.175,1.95-.326.357-.1,2.049-.4,3.907-.7Z" transform="translate(-71.757 -218.323)" fill="#465d71"/>
      <path id="Path_149" data-name="Path 149" d="M150.987,256.6a20.547,20.547,0,0,0-.372-4.036,26.159,26.159,0,0,0-1.244-4.089,20.006,20.006,0,0,0-1.715-3.778c-1.108-1.753-2.405-3.384-3.672-5.023a22.055,22.055,0,0,0-5.979-5.015,25.928,25.928,0,0,0-8.672-3.786,38.943,38.943,0,0,0-5.432-1.1c-3.528-.19-7.071-.038-10.607-.083a31.681,31.681,0,0,0-11.13,2.246,29.15,29.15,0,0,0-14.651,12.39,21.929,21.929,0,0,0-2.716,5.994,31.56,31.56,0,0,0-.9,8q.08,91.228.038,182.449c0,1.48-.137,2.959-.129,4.439.015,3.164.114,6.328.121,9.492,0,1.138.144,1.4,1.259,1.4h1.457v-3.536a.884.884,0,0,0-.152-.038l.023-.455.129-.023v-3.558h-.061a2.133,2.133,0,0,1,.061-.577v-4.272a1.562,1.562,0,0,1-.068-.486c.03-3.763.068-7.519.068-11.282q.011-86.767,0-173.526a24.5,24.5,0,0,1,1.252-8.49,35.733,35.733,0,0,1,2.663-5.2,22.166,22.166,0,0,1,6.1-6.5,29.281,29.281,0,0,1,10.622-4.878c4.226-1.1,8.5-.7,12.762-.8a29.224,29.224,0,0,1,17.23,4.97,26.023,26.023,0,0,1,6.214,5.918,20.721,20.721,0,0,1,4.545,11.51c.228,4.385.19,8.794.2,13.187q.023,20.349-.008,40.7v40.963H148.2q0,30.273.008,60.531,0,15.569.03,31.138v14.7h1.229c1.381,0,1.533-.159,1.533-1.571V355.291Q151,305.944,150.987,256.6Z" transform="translate(-74.665 -221.061)" fill="#465d71"/>
      <path id="Path_150" data-name="Path 150" d="M154.231,353.73q0,49.028-.008,98.064a20.2,20.2,0,0,1-.174,2.238c-.1.9-.774,1.085-1.5,1.047-.994-.046-1.411-.478-1.419-1.351-.061-4.575-.167-9.15-.167-13.718q-.011-92.013-.023-184.019c0-2.1-.19-4.211-.395-6.313a8.741,8.741,0,0,0-.713-2.39,40.877,40.877,0,0,0-1.973-4.256,34.9,34.9,0,0,0-2.807-4.226,28.317,28.317,0,0,0-3.27-3.6,29.381,29.381,0,0,0-3.46-2.458c-.835-.561-1.669-1.138-2.549-1.616a22.347,22.347,0,0,0-2.807-1.29c-1.768-.675-3.551-1.3-5.341-1.92a6.366,6.366,0,0,0-1.32-.266,72.169,72.169,0,0,0-12.473-.546c-2.944.137-5.872.425-8.8.728a10.487,10.487,0,0,0-2.382.721c-1.586.569-3.2,1.07-4.727,1.783a29.766,29.766,0,0,0-4.734,2.648,33.548,33.548,0,0,0-4.977,4.226c-1.32,1.4-2.17,3.232-3.422,4.712-1.282,1.525-1.639,3.475-2.648,5.114-.243.395-.106,1.009-.258,1.487a28.4,28.4,0,0,0-1.039,8.976q.034,93.516.015,187.024c0,2.489.008,4.977-.015,7.466-.008.6-.159,1.191-.144,1.783.023.88-.554,1.176-1.229,1.244a1.6,1.6,0,0,1-1.715-1.389c-.091-.956-.175-1.919-.175-2.883q-.011-97.385.038-194.763c0-2.4.713-4.788.88-7.2.137-1.92,1.3-3.437,1.684-5.243a5.129,5.129,0,0,1,.744-1.517c.645-1.009,1.4-1.95,1.988-3a21.242,21.242,0,0,1,4.431-5.288,43.328,43.328,0,0,1,4.567-3.558,30.689,30.689,0,0,1,4.234-2.473,48,48,0,0,1,4.97-1.92,28.55,28.55,0,0,1,3.361-.91,19.948,19.948,0,0,1,3.27-.516c3.68-.174,7.367-.372,11.055-.349a35.443,35.443,0,0,1,10.516,1.252c1.669.523,3.27,1.29,4.947,1.783a27.351,27.351,0,0,1,6.062,3.187,23.976,23.976,0,0,1,3.262,2.5,20.172,20.172,0,0,1,2.61,2.542c1.184,1.457,2.231,3.035,3.346,4.552.379.516.85.971,1.176,1.517a10.528,10.528,0,0,1,.9,1.973c.766,2.329,1.608,4.651,2.185,7.033a19.942,19.942,0,0,1,.417,4.666Q154.235,304.379,154.231,353.73Z" transform="translate(-73.161 -219.697)" fill="#f90"/>
      <path id="Path_151" data-name="Path 151" d="M144.313,278.329c-1.2-1.813-2.329-3.649-4.188-4.871-.728-.478-1.479-.918-2.193-1.419a1,1,0,0,1-.137-1.624c.728-.63,1.479-1.237,2.215-1.859a11.88,11.88,0,0,0,4.2-7.762,22.55,22.55,0,0,0,.076-4.355,9.128,9.128,0,0,0-.842-4.12,19.313,19.313,0,0,0-2.83-4.363,38.4,38.4,0,0,0-3.657-3.073,5.561,5.561,0,0,0-1.381-.827c-1.426-.561-2.876-1.093-4.332-1.578a8.044,8.044,0,0,0-2.352-.523c-3.574-.061-7.155-.046-10.736-.03-3.445.015-6.859-.1-10.2,1.275a21.244,21.244,0,0,0-6.237,4.188c-1.525,1.4-2.231,3.346-3.126,5.159a3.24,3.24,0,0,0-.349,1.29c-.129,3.907-.258,7.815-.319,11.73-.038,2.177.038,4.363.091,6.548.023,1.267.41,1.768,1.434,1.806,1.783.061,3.574.091,5.357.083,3.149-.008,6.3-.083,9.446-.083,3.179,0,6.366.129,9.545.076a33.422,33.422,0,0,1,7.58.349,16.537,16.537,0,0,1,3.778,1.13,11.734,11.734,0,0,1,5.357,5.144,11.008,11.008,0,0,1-1.578,12.253c-1.548,1.586-3.24,3.073-5.554,3.483a39.151,39.151,0,0,1-5.326.872c-3.786.137-7.572.023-11.358.061-2.542.023-2.557.038-2.557-2.466q.011-8.149.038-16.29c.008-.888-.326-1.5-1.2-1.661a12.658,12.658,0,0,0-2.147-.137c-3.665-.076-7.322-.152-10.986-.2a1.668,1.668,0,0,0-1.866,1.844v10.645H97.94c0,1,.008,2,0,3-.008,2.519-.023,5.038-.03,7.557,0,1.252.66,2.109,1.646,2.117,1.077.015,2.162-.008,3.24-.008,3.938,0,7.868.03,11.806.008,4.879-.03,9.765.03,14.636-.22a16.351,16.351,0,0,0,6.548-1.184,19.779,19.779,0,0,0,5.41-3.414,17.541,17.541,0,0,0,3.308-4.112,14.682,14.682,0,0,0,1.859-6.419A13.191,13.191,0,0,0,144.313,278.329Zm-8.285-12.268a15.035,15.035,0,0,1-4.954,2.891,16.379,16.379,0,0,1-6.1.7H104.139c-1.244,0-1.426-.288-1.305-1.54.091-1.032.023-2.071.023-3.111,0-1.791-.046-3.581.015-5.372a39.479,39.479,0,0,1,.417-5.926,7.229,7.229,0,0,1,1.677-2.951,11.279,11.279,0,0,1,2.276-1.95c.66-.47,1.449-.751,2.124-1.206,1.358-.91,2.951-.789,4.446-1.047a11.387,11.387,0,0,1,1.874.144c4.15.015,8.308-.03,12.458.03a10.291,10.291,0,0,1,3.407.569,14.934,14.934,0,0,1,5.425,3.672c1.813,1.851,2.291,4.181,2.822,6.525a4,4,0,0,1-.159,1.411,11.778,11.778,0,0,1-.432,2.435c-.319.85-1,1.555-1.3,2.405A6.2,6.2,0,0,1,136.028,266.06Z" transform="translate(-78.067 -224.015)" fill="#f90"/>
      <path id="Path_152" data-name="Path 152" d="M146.5,387.2c1.123,1.555,1.138,1.715-.7,2.458a50.363,50.363,0,0,1-6.4,2.253,39.656,39.656,0,0,1-10.463,1.024,36.426,36.426,0,0,1-11.062-1.836,34.136,34.136,0,0,1-9.7-5.159,32.889,32.889,0,0,1-7.989-8.346,27.9,27.9,0,0,1-4.059-9.954,30.265,30.265,0,0,1,.258-12.709,23.933,23.933,0,0,1,2.595-6.517,31.624,31.624,0,0,1,6.57-8.247,36.284,36.284,0,0,1,9.939-6.4,38.748,38.748,0,0,1,15.068-2.838c2.815-.213,6.813.516,10.728,1.631a50.115,50.115,0,0,1,5.463,2.162.978.978,0,0,1,.3,1.533,14.157,14.157,0,0,0-.759,1.214c-.478.88-1.009,1.017-1.92.592a30.66,30.66,0,0,0-8.968-2.7,35.924,35.924,0,0,0-10.857.091,31.28,31.28,0,0,0-7.724,2.215,27.991,27.991,0,0,0-9.916,7.147,32.936,32.936,0,0,0-4.363,5.964,22.429,22.429,0,0,0-2.564,10.546,27.5,27.5,0,0,0,.941,8,23.2,23.2,0,0,0,2.982,6.343,31.066,31.066,0,0,0,8.953,8.649,30.748,30.748,0,0,0,16.312,4.78,36.74,36.74,0,0,0,9.734-1.009,36.371,36.371,0,0,0,5.03-1.783c1.4-.577,1.707-.546,2.466.744C146.436,387.106,146.474,387.159,146.5,387.2Z" transform="translate(-77.505 -245.486)" fill="#465d71"/>
      <path id="Path_153" data-name="Path 153" d="M146.875,430.006c-.03.046-.061.1-.091.152-1.039,1.806-1.586,1.98-3.429,1.168A31.762,31.762,0,0,0,129.88,428.6a36.283,36.283,0,0,0-8.118,1.267,29.81,29.81,0,0,0-15.888,10.6,16.584,16.584,0,0,0-3.429,6.8c-.266,1.472-1.07,2.86-1.184,4.325a57.037,57.037,0,0,0,0,7.724,13.724,13.724,0,0,0,.941,3.665,35.99,35.99,0,0,0,1.874,4.545,20.215,20.215,0,0,0,2.178,3.058c.622.8,1.335,1.517,2,2.276a26.535,26.535,0,0,0,5.008,4.241,28.589,28.589,0,0,0,7.64,3.589,51.192,51.192,0,0,0,5.5,1.115c.2.038.41.106.607.159a2.164,2.164,0,0,1,1.29,3.475,1.055,1.055,0,0,1-.744.417,29.048,29.048,0,0,1-4.954-.3,41.746,41.746,0,0,1-6.221-1.9c-1.3-.486-2.466-1.373-3.756-1.927A21.972,21.972,0,0,1,107,477.805a28.583,28.583,0,0,1-3.4-3.308,49.5,49.5,0,0,1-4.1-5.7,23.771,23.771,0,0,1-1.791-4.5,22.775,22.775,0,0,1-1.1-3.9c-.281-1.821-.319-3.68-.47-5.524a32.63,32.63,0,0,1,1.275-7.944,27,27,0,0,1,4.674-9.188,29.458,29.458,0,0,1,7.117-6.768c.933-.6,1.783-1.335,2.724-1.92a21.739,21.739,0,0,1,2.944-1.54c1.707-.744,3.46-1.4,5.2-2.087a1.8,1.8,0,0,1,.44-.121c2.921-.463,5.827-1.115,8.771-1.328a33.58,33.58,0,0,1,6.123.546c1.525.175,3.042.44,4.56.7a7.042,7.042,0,0,1,1.29.4c1.426.561,2.86,1.123,4.279,1.707a4.965,4.965,0,0,1,.948.508C147.763,428.747,147.756,428.762,146.875,430.006Z" transform="translate(-77.64 -267.939)" fill="#f90"/>
      <path id="Path_154" data-name="Path 154" d="M121.221,354.159q0,15.888.023,31.775c0,.812-.387,1.077-1.055.729a28.3,28.3,0,0,1-8.642-6.51,26.132,26.132,0,0,1-4.181-6.51,22.3,22.3,0,0,1-1.123-13.976,18.922,18.922,0,0,1,3.02-6.715A28.658,28.658,0,0,1,115.971,346c1.252-.918,2.648-1.646,3.983-2.451a3.715,3.715,0,0,1,.781-.174c.152.22.531.508.531.8C121.282,347.5,121.221,350.828,121.221,354.159Z" transform="translate(-79.93 -248.495)" fill="#465d71"/>
      <path id="Path_155" data-name="Path 155" d="M158.791,496.38c0,1.123-.19,1.335-1.32,1.335q-6.362.034-12.731.046c-1.5,0-1.707-.258-1.7-1.753.023-3.581.008-7.155.008-10.736h.008c0-3.763.015-7.526-.008-11.282-.008-.941.523-1.108,1.29-1.1,3.968.008,7.944.03,11.919.015,2.769-.015,2.534-.182,2.527,2.542C158.768,482.427,158.783,489.4,158.791,496.38Z" transform="translate(-88.956 -279.746)" fill="#465d71"/>
      <path id="Path_156" data-name="Path 156" d="M137.063,306.394c-.023,1.161-.235,1.32-1.426,1.32-1.487,0-2.967.03-4.446-.008-1.244-.03-1.517-.417-1.472-1.631.053-1.237.015-2.481.008-3.718,0-1.108.212-1.335,1.32-1.358.417-.008.842.008,1.267.008H133.5v.008c.872,0,1.753.023,2.633,0,.607-.023.9.22.91.835C137.048,303.367,137.086,304.876,137.063,306.394Z" transform="translate(-85.741 -238.271)" fill="#465d71"/>
      <path id="Path_157" data-name="Path 157" d="M137.062,291.921c.008,1.426.008,2.845-.015,4.264-.015,1.039-.235,1.237-1.3,1.252-.759.015-1.517.008-2.269.008v-.008c-.91,0-1.821.03-2.724-.015-.759-.03-1.085-.4-1.032-1.244.076-1.267-.015-2.542-.046-3.809s.3-1.624,1.578-1.639c1.51-.015,3.027-.023,4.537-.03C136.743,290.692,137.054,290.988,137.062,291.921Z" transform="translate(-85.733 -235.786)" fill="#465d71"/>
      <path id="Path_158" data-name="Path 158" d="M147.389,297.423c-.9.038-1.813.008-2.724.008v.023c-.88,0-1.76-.015-2.64,0a.919.919,0,0,1-1.077-1.032c-.008-1.578-.015-3.149.015-4.719.008-.721.47-1.009,1.153-.964a6.227,6.227,0,0,1,4.856,2.633,11.731,11.731,0,0,1,1.328,2.739C148.626,296.983,148.315,297.377,147.389,297.423Z" transform="translate(-88.45 -235.795)" fill="#465d71"/>
      <path id="Path_159" data-name="Path 159" d="M148.375,302.228a6.7,6.7,0,0,1-2.724,4.135,5.552,5.552,0,0,1-3.756,1.275c-.554-.046-.9-.273-.9-.812-.023-1.692-.046-3.384.03-5.076.015-.258.516-.668.827-.7a26.747,26.747,0,0,1,2.815-.038v.008c.91,0,1.821-.023,2.731.008S148.573,301.325,148.375,302.228Z" transform="translate(-88.457 -238.271)" fill="#465d71"/>
      <path id="Path_160" data-name="Path 160" d="M113.15,271.938c-.88,0-1.753.015-2.633-.008s-1.282-.4-1.267-1.267c.023-1.26.106-2.519.167-3.771a1.646,1.646,0,0,0,0-.273c-.129-1.4.061-1.6,1.517-1.6,1.571,0,3.149-.008,4.719,0,1.047.008,1.2.19,1.229,1.191.038,1.229.144,2.458.167,3.687a2.71,2.71,0,0,1-.25,1.381,1.5,1.5,0,0,1-1.024.622A23.264,23.264,0,0,1,113.15,271.938Z" transform="translate(-80.804 -229.589)" fill="#465d71"/>
      <path id="Path_161" data-name="Path 161" d="M124.338,265.029c.789,0,1.578.008,2.367,0,1.32-.015,1.434.3,1.487,1.426a4.889,4.889,0,0,1-1.95,4.545,6.106,6.106,0,0,1-2.261.918,9.477,9.477,0,0,1-2.178.03c-.88-.023-1.275-.395-1.29-1.259q-.034-2.185,0-4.37c.015-1.062.273-1.282,1.358-1.29C122.7,265.021,123.519,265.029,124.338,265.029Z" transform="translate(-83.517 -229.592)" fill="#465d71"/>
      <path id="Path_162" data-name="Path 162" d="M124.25,261.619c-.85,0-1.7-.015-2.549.008-.835.023-1.206-.357-1.191-1.191.023-1.4,0-2.8.008-4.2,0-1.221.319-1.517,1.548-1.533,1.791-.023,3.505.2,4.818,1.563a3.767,3.767,0,0,1,1.29,3.02,2.947,2.947,0,0,0,.091.888,1.084,1.084,0,0,1-1.093,1.442C126.193,261.642,125.221,261.619,124.25,261.619Z" transform="translate(-83.52 -227.1)" fill="#465d71"/>
      <path id="Path_163" data-name="Path 163" d="M114.805,254.683c1.631-.106,2.185.129,2.086,2.253a19.524,19.524,0,0,0,.167,3.05,1.29,1.29,0,0,1-1.366,1.624h-4.659c-1.464,0-2.064-.622-1.768-2.056a5.275,5.275,0,0,1,5.539-4.871Z" transform="translate(-80.79 -227.091)" fill="#465d71"/>
    </g>
    <rect id="Rectangle_168" data-name="Rectangle 168" width="61.653" height="2.921" transform="translate(83.679 441.938)" fill="#465d71"/>
    <path id="Path_253" data-name="Path 253" d="M0,0H61.653V2.921H0Z" transform="translate(83.679 446.186)" fill="#f90"/>
    <rect id="Rectangle_170" data-name="Rectangle 170" width="61.653" height="2.921" transform="translate(83.679 450.435)" fill="#465d71"/>
  </g>
</svg>
